<svg xmlns="http://www.w3.org/2000/svg" viewBox="10 10 112 112"><defs><linearGradient id="q0" gradientUnits="userSpaceOnUse" x1="66" y1="20" x2="91.56" y2="27.75"><stop offset="0" stop-color="#0b5a34"/><stop offset="1" stop-color="#10693b"/></linearGradient><linearGradient id="q1" gradientUnits="userSpaceOnUse" x1="91.09" y1="27.44" x2="108.71" y2="48.92"><stop offset="0" stop-color="#10693b"/><stop offset="1" stop-color="#147843"/></linearGradient><linearGradient id="q2" gradientUnits="userSpaceOnUse" x1="108.28" y1="47.88" x2="111" y2="75.52"><stop offset="0" stop-color="#147843"/><stop offset="1" stop-color="#19874a"/></linearGradient><linearGradient id="q3" gradientUnits="userSpaceOnUse" x1="111.22" y1="74.42" x2="98.13" y2="98.92"><stop offset="0" stop-color="#19874a"/><stop offset="1" stop-color="#1d9752"/></linearGradient><linearGradient id="q4" gradientUnits="userSpaceOnUse" x1="98.92" y1="98.13" x2="74.42" y2="111.22"><stop offset="0" stop-color="#1d9752"/><stop offset="1" stop-color="#22a659"/></linearGradient><linearGradient id="q5" gradientUnits="userSpaceOnUse" x1="75.52" y1="111" x2="47.88" y2="108.28"><stop offset="0" stop-color="#22a659"/><stop offset="1" stop-color="#26b560"/></linearGradient><linearGradient id="q6" gradientUnits="userSpaceOnUse" x1="48.92" y1="108.71" x2="27.44" y2="91.09"><stop offset="0" stop-color="#26b560"/><stop offset="1" stop-color="#2bc468"/></linearGradient><linearGradient id="q7" gradientUnits="userSpaceOnUse" x1="27.75" y1="91.56" x2="20" y2="66"><stop offset="0" stop-color="#2bc468"/><stop offset="1" stop-color="#2fd36f"/></linearGradient></defs><g><circle cx="66" cy="66" r="46" fill="none" stroke="#2fd36f" stroke-opacity=".22" stroke-width="18"/><path d="M 66 20 A 46 46 0 0 1 91.56 27.75" fill="none" stroke="url(#q0)" stroke-width="18" stroke-linecap="round"/><path d="M 91.09 27.44 A 46 46 0 0 1 108.71 48.92" fill="none" stroke="url(#q1)" stroke-width="18" stroke-linecap="butt"/><path d="M 108.28 47.88 A 46 46 0 0 1 111 75.52" fill="none" stroke="url(#q2)" stroke-width="18" stroke-linecap="butt"/><path d="M 111.22 74.42 A 46 46 0 0 1 98.13 98.92" fill="none" stroke="url(#q3)" stroke-width="18" stroke-linecap="butt"/><path d="M 98.92 98.13 A 46 46 0 0 1 74.42 111.22" fill="none" stroke="url(#q4)" stroke-width="18" stroke-linecap="butt"/><path d="M 75.52 111 A 46 46 0 0 1 47.88 108.28" fill="none" stroke="url(#q5)" stroke-width="18" stroke-linecap="butt"/><path d="M 48.92 108.71 A 46 46 0 0 1 27.44 91.09" fill="none" stroke="url(#q6)" stroke-width="18" stroke-linecap="butt"/><path d="M 27.75 91.56 A 46 46 0 0 1 20 66" fill="none" stroke="url(#q7)" stroke-width="18" stroke-linecap="round"/><rect x="86" y="86" width="22" height="34" rx="11" fill="#21a559" transform="rotate(-45 97 103)"/></g></svg>
